# xmcd
#
# Track frame offsets:
#	150
#	12552
#	24932
#	37065
#	49288
#	62704
#	74717
#	98017
#	111057
#	122607
#	135282
#	147618
#	160258
#	171749
#	180666
#	195809
#
# Disc length: 2810 seconds
#
# Revision: 1
# Processed by: cddbd v1.4PL0 Copyright (c) Steve Scherf et al.
# Submitted via: CDmax 1.9
#
DISCID=e50af810
DTITLE=The Platters - The golden collection CD 1
DYEAR=2000
DGENRE=Blues
TTITLE0=Only you
TTITLE1=Twilight time
TTITLE2=The magic touch
TTITLE3=Heaven on earth
TTITLE4=I'm sorry
TTITLE5=You'll never know
TTITLE6=My way
TTITLE7=Crying in the chapel
TTITLE8=I believe
TTITLE9=Put your hand in the hand
TTITLE10=I love you 1000 times
TTITLE11=Washed ashore
TTITLE12=I love you yes I do
TTITLE13=Love and let love
TTITLE14=Sweet inspriration
TTITLE15=Why
EXTD=
EXTT0=
EXTT1=
EXTT2=
EXTT3=
EXTT4=
EXTT5=
EXTT6=
EXTT7=
EXTT8=
EXTT9=
EXTT10=
EXTT11=
EXTT12=
EXTT13=
EXTT14=
EXTT15=
PLAYORDER=
